<?xml version="1.0" encoding="UTF-8" standalone="no"?>
<!-- Generator: Adobe Illustrator 27.5.0, SVG Export Plug-In . SVG Version: 6.00 Build 0)  -->

<svg
   version="1.1"
   x="0px"
   y="0px"
   viewBox="0 0 330.5 192.57499"
   xml:space="preserve"
   id="svg"
   width="330.5"
   height="192.575"
   xmlns="http://www.w3.org/2000/svg"
   xmlns:svg="http://www.w3.org/2000/svg">
<g
   id="Layer_2"
   transform="translate(-274.99921,-379.52501)">
<path
   id="path2"
    d="m 337.79999,379.60001 c -2.3,0.2 -4.5,0.89961 -6.5,2.09961 -2.2,1.3 -4.00078,3.10117 -5.30078,5.20117 -0.4,0.6 -0.7,1.19844 -1,1.89844 -0.3,0.7 -0.49922,1.3 -0.69922,2 -0.7,2.8 -0.70078,5.70156 0.19922,8.60156 0.3,1 0.80078,2 1.30078,3 2.3,4 4.7,8.09961 7,12.09961 3.3,5.6 6.50078,11.20041 9.80078,16.90039 3.3,5.8 6.7,11.49885 10,17.29883 l 0.0996,0.0996 c -6.69998,4.19998 -13.10119,8.80039 -19.20117,13.90039 -3.6,3 -7.09844,6.2 -10.39844,9.5 -6.69998,6.59998 -12.70119,13.80002 -18.20117,21.5 -4.5,6.29998 -8.49961,12.80119 -12.09961,19.70117 -2.8,5.3 -5.3,10.80002 -7.5,16.5 -2.6,6.69998 -4.8,13.59963 -6.5,20.59961 -1,4 -1.8,8.09883 -2.5,12.29883 -0.1,0.7 -0.20078,1.3 -0.30078,2 -0.4,2.4 -0.7,4.80078 -1,7.30078 h 330.5 c 0,-2.5 -0.29961,-4.90078 -0.59961,-7.30078 -0.1,-0.7 -0.19883,-1.3 -0.29883,-2 -0.7,-4.1 -1.5,-8.19883 -2.5,-12.29883 -1.7,-7.09998 -3.9,-13.99963 -6.5,-20.59961 -2.2,-5.69998 -4.7,-11.2 -7.5,-16.5 -3.6,-6.79998 -7.60158,-13.40119 -12.10156,-19.70117 -5.5,-7.69998 -11.59924,-14.80002 -18.19922,-21.5 -2.8,-2.8 -5.69922,-5.5 -8.69922,-8 -6.49998,-5.6 -13.40119,-10.69922 -20.70117,-15.19922 0.1,-0.1 0.10117,-0.20078 0.20117,-0.30078 3.3,-5.79998 6.7,-11.49883 10,-17.29883 3.3,-5.59998 6.49883,-11.20041 9.79883,-16.90039 2.3,-4 4.7,-8.09961 7,-12.09961 0.6,-1 1.00078,-1.9 1.30078,-3 0.9,-2.8 0.99922,-5.80156 0.19922,-8.60156 -0.2,-0.7 -0.39922,-1.4 -0.69922,-2 -0.3,-0.7 -0.6,-1.29844 -1,-1.89844 -1.2,-2.1 -3.00078,-3.90117 -5.30078,-5.20117 -2,-1.2 -4.2,-1.89961 -6.5,-2.09961 -1,-0.1 -1.90039,-0.1 -2.90039,0 -0.8,0.1 -1.59883,0.20039 -2.29883,0.40039 -2.8,0.7 -5.30078,2.20039 -7.30078,4.40039 -0.7,0.8 -1.40039,1.69961 -1.90039,2.59961 -2.3,4 -4.7,8.09961 -7,12.09961 l -9.79883,16.90039 c -3.3,5.79998 -6.7,11.49883 -10,17.29883 -0.4,0.6 -0.69961,1.30039 -1.09961,1.90039 l -1.5,-0.59961 c -18.39996,-6.99998 -38.30121,-10.80078 -59.20117,-10.80078 h -1.69922 c -18.49996,0.2 -36.30004,3.40119 -53,9.20117 L 379.9992,435.1 c -0.3,-0.6 -0.7,-1.20078 -1,-1.80078 -3.3,-5.8 -6.7,-11.49885 -10,-17.29883 -3.3,-5.59998 -6.49883,-11.20041 -9.79883,-16.90039 -2.3,-4 -4.7,-8.09961 -7,-12.09961 -0.6,-1 -1.20039,-1.79961 -1.90039,-2.59961 -2,-2.2 -4.60078,-3.70039 -7.30078,-4.40039 -0.8,-0.2 -1.59883,-0.30039 -2.29883,-0.40039 -1,-0.1 -1.90039,-0.1 -2.90039,0 z m 175.89258,115.17578 c 5.40223,0.007 11.1957,3.18674 14.9082,8.82422 5.5,8.09998 4.49842,18.29922 -2.10156,22.69922 -6.59998,4.39998 -16.39883,1.40115 -21.79883,-6.79883 -5.49998,-8.09998 -4.50037,-18.30119 2.09961,-22.70117 2.0625,-1.375 4.43701,-2.02661 6.89258,-2.02344 z m -145.98633,0.0996 c 2.45556,-0.003 4.83203,0.65039 6.89453,2.02539 6.59999,4.4 7.49961,14.49923 2.09961,22.69922 -5.49999,8.09999 -15.20079,11.20078 -21.80078,6.80078 -6.59999,-4.39999 -7.4996,-14.50118 -2.09961,-22.70117 3.7125,-5.63749 9.50401,-8.81724 14.90625,-8.82422 z" />
</g>
</svg>
