<?xml version="1.0" encoding="UTF-8" standalone="no"?>
<svg
   version="1.1"
   viewBox="0 0 218.65031 253.5"
   id="svg"
   width="218.65031"
   height="253.5"
   xmlns="http://www.w3.org/2000/svg"
   xmlns:svg="http://www.w3.org/2000/svg"
   xmlns:rdf="http://www.w3.org/1999/02/22-rdf-syntax-ns#"
   xmlns:cc="http://creativecommons.org/ns#"
   xmlns:dc="http://purl.org/dc/elements/1.1/">
  <title id="title1">Tux</title>
  <g
     id="tux"
     style="display:inline"
     transform="translate(-0.8496915,-6)">
    <path
       id="body_base"
       style="display:inline"
       d="m 106.94922,6 c -6,0 -12.019021,1.1791612 -17.458986,4.119141 -5.779958,3.109978 -10.519708,8.090745 -13.429687,13.970703 -2.919979,5.879958 -4.060235,12.160127 -4.240235,19.080078 -0.329993,13.139909 0.29907,20.920247 1.289063,33.410156 0.26,3.799972 0.74,6.019716 0.25,9.929688 -1.619986,8.299937 -8.879794,13.879924 -12.759766,21.169924 -4.269965,8.03993 -6.069083,17.13046 -9.289062,25.65039 -2.949979,7.78993 -7.09088,15.09922 -9.880859,22.94922 -2.564665,7.19546 -3.919872,14.85984 -3.841797,22.48828 0.650394,-0.0514 1.308312,-0.0166 1.947265,0.10156 1.326522,0.24365 2.581466,0.82132 3.691406,1.57031 2.228916,1.51603 3.879791,3.71854 5.458985,5.90235 1.509674,2.07529 2.985944,4.17579 4.433594,6.29492 -2.58428,-8.69194 -3.346196,-17.92833 -2.458985,-26.9668 0.909993,-9.31993 3.499325,-18.43983 7.279297,-27.00976 6.746157,-9.529 7.158481,-15.98517 9.890625,-25.80078 1.529993,-5.13 4.669318,-9.60876 7.779297,-13.968755 1.789986,-2.509979 3.621413,-5.100099 4.441406,-8.080078 C 80.820774,88.020568 80.64,85.079432 80.75,82.189453 c 0.06,-1.449986 0.189069,-2.898835 0.539062,-4.298828 0.155451,-0.604524 0.375171,-1.193133 0.621094,-1.767578 -0.227274,-0.186609 -0.440775,-0.393066 -0.591797,-0.642578 -0.08636,-0.152788 -0.146432,-0.311288 -0.195312,-0.478516 -0.01776,-0.03781 -0.03838,-0.07555 -0.05078,-0.115234 -0.0425,-0.1445 -0.05859,-0.289785 -0.05859,-0.425781 -0.0085,-0.289 0.05769,-0.56911 0.117187,-0.84961 0.153,-0.756495 0.23788,-1.520958 0.484375,-2.251953 0.306,-0.917995 0.868473,-1.743505 1.480469,-2.5 0.545939,-0.666302 1.143464,-1.290852 1.78125,-1.871094 -0.08937,-0.01874 -0.179113,-0.03613 -0.267578,-0.05859 -1.349997,-0.33 -1.811774,-0.781264 -2.781771,-1.771261 -0.969997,-0.999997 -1.946823,-2.366238 -2.46682,-3.666235 -1.039997,-2.579991 -1.770159,-5.57181 -1.970159,-8.341801 -0.22,-3.069991 -0.4407,-6.078019 0.529297,-8.99801 0.489997,-1.449997 1.280159,-2.602291 2.410156,-3.652288 1.119997,-1.049997 2.589144,-1.683653 4.119141,-1.763653 1.149997,-0.06 2.311565,0.230237 3.351562,0.740234 1.029997,0.51 1.950003,1.078169 2.75,1.908166 1.659997,1.709994 2.84961,3.544619 3.59961,5.804613 0.647653,1.977969 0.923394,4.059068 1.019531,6.142578 -0.543289,1.929567 -2.088982,2.908871 -3.527344,4.623047 -0.849998,0.959998 -1.822814,2.355705 -2.632812,3.345703 -0.4,0.5 -0.759766,1.029141 -1.009766,1.619141 -0.235062,0.524367 -0.373863,1.097668 -0.384766,1.675781 1.961011,-2.05731 4.357508,-3.697641 6.986328,-4.775391 -0.0047,0.01662 -0.005,0.03418 -0.0098,0.05078 0.345568,-0.142097 0.678175,-0.315077 1.03125,-0.4375 0.953589,-0.332031 1.938339,-0.590049 2.935547,-0.759766 0.498604,-0.08486 0.999191,-0.148849 1.501956,-0.1875 0.50276,-0.03865 1.00734,-0.05233 1.50976,-0.04102 0.60292,0.01357 1.20348,0.0648 1.79883,0.15625 0.59536,0.09145 1.1855,0.223126 1.76563,0.398438 0.68848,0.2125 1.35688,0.48334 2.01171,0.785156 0.65483,0.301816 1.2961,0.63461 1.9336,0.97461 0.0187,0.01006 0.038,0.01923 0.0566,0.0293 1.21351,0.653646 2.41733,1.330318 3.65625,1.941407 0.40103,0.199838 0.8068,0.39062 1.21484,0.576172 -0.15566,-0.568597 0.125,-2.029039 -0.24505,-2.489351 -1.71836,-1.436612 -3.35305,-2.469476 -5.03034,-3.938384 -0.76,-0.959998 -1.09306,-1.118517 -1.62304,-2.228515 -0.42293,-0.8843 -1.03775,-1.504447 -1.41407,-2.730469 -0.29781,-1.91713 -0.23351,-3.632214 0.52344,-5.738244 0.98,-2.739995 3.00063,-5.642861 5.39063,-7.292857 0.74998,-0.51 1.53109,-0.882873 2.37109,-1.212873 1.48,-0.569998 3.09992,-0.739531 4.66992,-0.519531 1.57,0.22 3.08039,0.733734 4.40039,1.593732 2.66,1.719996 4.54008,4.021613 5.58008,7.011607 0.96,2.749994 1.24008,5.558953 1.08008,8.458947 -0.13,2.289996 -0.54,4.58016 -1.5,6.660156 -0.96,2.069996 -2.51125,3.918518 -4.53125,4.978516 -0.26734,0.137671 -0.54292,0.25567 -0.82227,0.365234 0.17269,0.06094 0.35165,0.103119 0.51953,0.177735 0.612,0.271996 1.19907,0.664192 1.53907,1.242187 0.16412,0.279001 0.26057,0.598155 0.26757,0.925781 0.11836,0.157656 0.22585,0.323411 0.31055,0.501954 0.374,0.807495 0.35613,1.743646 0.20313,2.61914 -0.153,0.875495 -0.43305,1.726068 -0.56055,2.601563 -0.007,0.04906 -0.0113,0.09911 -0.0176,0.148437 0.0645,0.05908 0.13804,0.107397 0.20117,0.167969 1.46,1.389993 2.52063,3.13142 3.39063,4.941406 0.86,1.809986 1.53836,3.708608 2.31836,5.558594 1.89993,4.499972 4.39147,8.729722 6.4414,13.179687 2.52332,13.668407 9.1921,21.172137 14.87891,32.470707 6.73993,13.92986 6.6796,30.16943 4.84961,45.52929 -0.1389,1.1628 -0.33482,2.32812 -0.50195,3.49414 2.09087,0.29546 4.1811,0.605 6.22265,1.14649 1.75999,0.46 3.48047,1.08054 5.23047,1.56054 2.38463,0.64077 4.85434,1.005 7.30859,0.93555 0.0408,-0.12285 0.0907,-0.24214 0.13086,-0.36523 4.01,-12.29993 4.75055,-25.551 3.06055,-38.38086 -1.69,-12.82993 -5.76133,-25.2689 -11.11133,-37.04883 -6.71993,-14.759904 -12.36875,-20.100403 -16.46875,-33.070312 -4.41993,-14.019902 -0.77061,-24.610397 -4.06054,-37.320313 -1.17,-4.319965 -3.03929,-8.450496 -5.44922,-12.230468 -2.82,-4.429972 -6.40046,-8.390726 -10.65039,-11.470704 C 124.13023,8.6190873 115.60915,6 106.94922,6 Z m 38.8164,200.40039 c -1.67387,1.87597 -3.46135,3.66056 -5.26562,5.41016 -5.47993,5.30993 -11.17016,10.56039 -17.91016,14.15039 -12.88986,6.86993 -29.089306,6.85813 -42.199215,0.4082 -2.883164,-1.41871 -5.623167,-3.12516 -8.173828,-5.07812 0.251063,0.32461 0.507335,0.6451 0.751953,0.9746 1.949172,2.63501 3.672764,5.48614 4.539062,8.64454 1.127994,4.10586 0.687454,8.62715 -1.261718,12.4082 -0.202059,0.39215 -0.424957,0.77389 -0.658203,1.14844 2.614092,-0.64043 5.23327,-1.24847 7.861328,-1.79688 13.139909,-2.69 27.800371,-1.60961 39.990231,0.15039 4.13,0.63 8.23102,1.43969 12.29102,2.42969 2.3018,0.55736 4.60479,1.13969 6.91015,1.70312 -0.88104,-2.16388 -1.12109,-4.58768 -1.12109,-6.95312 -0.01,-5.22995 0.96114,-10.41036 1.87109,-15.57031 0.76,-4.29 1.47922,-8.58016 1.94922,-12.91016 0.1841,-1.70233 0.31926,-3.40979 0.42578,-5.11914 z" />
    <g
       id="wings"
       style="display:inline">
      <path
         id="wing_left_base"
         style="display:inline"
         d="m 71.480469,91.839844 c -1.209999,2.299997 -5.965565,5.853151 -8.355562,8.853156 -12.875321,14.60609 -17.045194,29.64994 -18.326488,34.03044 -1.65408,5.68903 -8.640766,18.87945 -11.429278,24.1164 -1.499999,2.81 -3.019063,5.67055 -3.539063,8.81055 -0.409999,2.48 -0.181015,5.03875 0.458984,7.46875 0.562792,2.17077 1.437352,4.2503 2.435547,6.25977 0.791412,-0.90467 1.740746,-1.68354 2.84961,-2.13868 1.245311,-0.51436 2.643435,-0.61474 3.960937,-0.37109 1.326527,0.24365 2.581456,0.82132 3.691406,1.57031 2.228926,1.51603 3.879786,3.71854 5.458985,5.90235 3.636668,4.99929 7.130196,10.106 10.306641,15.41211 2.294203,3.84782 4.417641,7.8021 6.96289,11.47461 0.20014,0.0939 0.394653,0.19888 0.595703,0.29101 2.399998,1.09 4.918597,2.07133 7.558594,2.11133 1.319999,0.03 2.651329,-0.1907 3.861328,-0.7207 1.199999,-0.53 2.280001,-1.38024 3,-2.49024 0.879999,-1.36 1.18,-3.05016 1,-4.66015 -0.18,-1.61 -0.810391,-3.1493 -1.650391,-4.5293 -2.059997,-3.38 -5.309456,-5.83 -8.439453,-8.25 -6.759993,-5.23 -13.290787,-10.76009 -19.550781,-16.58008 -1.759998,-1.65 -3.529767,-3.33992 -4.759766,-5.41992 -1.199998,-2.02 -1.851016,-4.32086 -2.291015,-6.63086 -1.209999,-6.32999 -0.899998,-12.99032 1.25,-19.07031 0.849999,-2.38 1.961017,-4.64969 3.041015,-6.92969 1.859999,-3.95 3.620315,-7.97961 6.070313,-11.59961 3.049997,-4.51 7.129377,-8.32993 9.609375,-13.16992 2.099998,-4.09 2.949766,-8.67923 3.759766,-13.19922 0.639999,-3.539997 1.850703,-7.00102 2.470703,-10.541016 z" />
      <path
         id="wing_right_base"
         d="m 162.76,127.12 c 5.24,4.22 8.57,10.59 9.6,17.24 0.8,5.18 0.28,10.51 -0.89,15.62 -1.17,5.12 -2.97,10.06 -4.77,15 -0.71,1.96 -1.43,3.95 -1.71,6.02 -0.29,2.08 -0.11,4.27 0.89,6.11 1.15,2.11 3.29,3.56 5.59,4.24 2.27,0.68 4.72,0.66 7.02,0.09 2.3,-0.57 6.17,-1.31 8.04,-2.77 4.75,-3.69 5.88,-10.1 7.01,-15.72 1.17,-5.87 0.6,-12.02 -0.43,-17.95 -1.41,-8.09 -3.78,-15.99 -6.79,-23.62 -2.22,-5.62 -5.06,-10.98 -8.44,-15.96 -3.32,-4.89 -8.02,-8.7 -11.5,-13.48 -1.21,-1.66 -2.66,-3.38 -3.84,-5.06 -2.56,-3.62 -1.98,-2.94 -3.57,-5.29 -1.15,-1.7 -2.97,-2.28 -4.88,-3.02 -1.92,-0.74 -4.06,-0.96 -6.04,-0.41 -2.6,0.73 -4.73,2.79 -5.86,5.24 -1.13,2.46 -1.33,5.28 -0.89,7.95 0.57,3.44 2.14,6.64 3.92,9.64 2,3.39 4.32,6.66 7.35,9.18 3.16,2.63 6.98,4.37 10.19,6.95 z"
         style="display:inline" />
    </g>
    <g
       id="feet"
       style="display:inline">
      <path
         id="foot_left_base"
         fill="url(#fill_foot_left_base)"
         d="m 34.98,175.33 c 1.38,-0.57 2.93,-0.68 4.39,-0.41 1.47,0.27 2.86,0.91 4.09,1.74 2.47,1.68 4.3,4.12 6.05,6.54 4.03,5.54 7.9,11.2 11.42,17.08 2.85,4.78 5.46,9.71 8.76,14.18 2.15,2.93 4.57,5.64 6.73,8.55 2.16,2.92 4.07,6.08 5.03,9.58 1.25,4.55 0.76,9.56 -1.4,13.75 -1.52,2.95 -3.86,5.48 -6.7,7.19 -2.84,1.71 -5.83,2.47 -9.15,2.47 -5.27,0 -10.42,-2.83 -15.32,-4.78 C 38.9,247.24 28.06,246 17.77,242.9 14.61,241.95 11.5,240.82 8.32,239.95 6.9,239.56 5.47,239.22 4.13,238.61 2.79,238.01 1.54,237.1 0.8,235.84 0.23,234.86 0,233.71 0,232.58 c 0,-1.14 0.28,-2.26 0.67,-3.32 0.77,-2.13 2.02,-4.06 2.86,-6.17 1.37,-3.44 1.62,-7.23 1.43,-10.93 -0.18,-3.69 -0.78,-7.36 -1.03,-11.05 -0.12,-1.65 -0.16,-3.32 0.16,-4.95 0.31,-1.62 1.01,-3.21 2.2,-4.35 1.1,-1.06 2.55,-1.69 4.05,-2 1.49,-0.31 3.03,-0.32 4.55,-0.29 1.52,0.03 3.05,0.12 4.57,-0.01 1.52,-0.12 3.05,-0.46 4.37,-1.22 1.26,-0.72 2.29,-1.79 3.14,-2.96 0.85,-1.17 1.54,-2.45 2.25,-3.72 0.7,-1.26 1.43,-2.52 2.36,-3.64 0.92,-1.12 2.06,-2.09 3.4,-2.64 z"
         style="display:inline;fill-opacity:0;stroke-width:7;stroke-dasharray:none;stroke-opacity:1"
         transform="matrix(0.9024,0,0,0.9024,4.0080915,21.02191)" />
      <path
         id="foot_right_base"
         fill="url(#fill_foot_right_base)"
         d="m 213.47,222.92 c -2.26,2.68 -5.4,4.45 -8.53,6.05 -5.33,2.71 -10.86,5.1 -15.87,8.37 -3.36,2.19 -6.46,4.76 -9.36,7.53 -2.48,2.37 -4.83,4.9 -7.61,6.91 -2.81,2.03 -6.05,3.5 -9.48,4.01 -0.95,0.14 -1.9,0.21 -2.86,0.21 -3.24,0 -6.48,-0.78 -9.46,-2.08 -2.7,-1.17 -5.3,-2.86 -6.86,-5.36 -1.56,-2.52 -1.92,-5.59 -1.92,-8.56 -0.01,-5.23 0.96,-10.41 1.87,-15.57 0.76,-4.29 1.48,-8.58 1.95,-12.91 0.85,-7.86 0.84,-15.81 0.28,-23.71 -0.1,-1.32 -0.21,-2.65 -0.01,-3.96 0.2,-1.31 0.74,-2.62 1.74,-3.48 0.93,-0.8 2.17,-1.16 3.4,-1.22 1.22,-0.07 2.44,0.12 3.65,0.3 2.85,0.42 5.73,0.74 8.52,1.48 1.76,0.46 3.48,1.08 5.23,1.56 2.94,0.79 6.01,1.17 9.02,0.82 3.25,-0.38 6.41,-1.6 9.68,-1.52 1.34,0.03 2.67,0.28 3.95,0.69 1.3,0.41 2.59,1 3.55,1.98 0.73,0.74 1.24,1.67 1.62,2.64 0.57,1.44 0.88,2.98 1.01,4.52 0.11,1.37 0.09,2.76 0.35,4.11 0.43,2.21 1.6,4.24 3.04,5.97 1.45,1.74 3.18,3.21 4.91,4.66 1.73,1.45 3.46,2.89 5.32,4.16 0.87,0.6 1.77,1.16 2.6,1.81 0.83,0.66 1.59,1.42 2.11,2.34 0.45,0.81 0.69,1.72 0.69,2.65 0,0.52 -0.07,1.04 -0.23,1.56 -0.45,1.43 -1.28,2.82 -2.3,4.04 z"
         style="display:inline;fill-opacity:0;stroke-width:7;stroke-miterlimit:4;stroke-dasharray:none;stroke-opacity:1;paint-order:normal" />
    </g>
    <g
       id="wing_tip_right"
       style="display:inline">
      <path
         id="wing_tip_right_base"
         d="m 189.55,178.72 c -0.35,-0.95 -0.97,-1.79 -1.72,-2.47 -0.75,-0.68 -1.64,-1.2 -2.57,-1.6 -1.86,-0.79 -3.89,-1.09 -5.89,-1.46 -1.87,-0.35 -3.74,-0.78 -5.62,-1.1 -1.96,-0.33 -3.98,-0.55 -5.92,-0.11 -1.69,0.38 -3.26,1.26 -4.54,2.43 -1.28,1.17 -2.28,2.63 -3,4.21 -1.27,2.79 -1.67,5.92 -1.43,8.97 0.18,2.27 0.76,4.61 2.25,6.32 1.21,1.39 2.92,2.26 4.68,2.78 3.04,0.9 6.35,0.85 9.36,-0.13 4.97,-1.67 9.37,-4.98 12.35,-9.29 0.98,-1.43 1.82,-2.98 2.2,-4.66 0.29,-1.28 0.3,-2.66 -0.15,-3.89 z" />
    </g>
    <g
       id="face"
       style="display:inline">
      <g
         id="eyes">
        <g
           id="eye_left">
          <g
             id="pupil_left">
            <path
               id="pupil_left_base"
               d="m 80.75,50.99 c -0.32,1.94 -0.33,3.97 0.33,5.81 0.44,1.22 1.17,2.33 2.05,3.28 0.57,0.62 1.23,1.18 1.99,1.55 0.77,0.37 1.65,0.52 2.48,0.32 0.76,-0.19 1.42,-0.68 1.91,-1.29 0.49,-0.61 0.82,-1.34 1.05,-2.09 0.69,-2.21 0.58,-4.62 -0.11,-6.83 -0.49,-1.61 -1.32,-3.16 -2.6,-4.24 -0.62,-0.52 -1.34,-0.93 -2.12,-1.11 -0.78,-0.19 -1.63,-0.14 -2.36,0.19 -0.81,0.37 -1.44,1.07 -1.85,1.86 -0.41,0.79 -0.62,1.67 -0.77,2.55 z" />
          </g>
        </g>
        <g
           id="eye_right">
          <g
             id="pupil_right">
            <path
               id="pupil_right_base"
               d="m 117.14,45.52 c -0.9,0.06 -1.78,0.37 -2.55,0.85 -0.76,0.48 -1.41,1.13 -1.92,1.88 -1.03,1.49 -1.48,3.31 -1.55,5.12 -0.05,1.35 0.1,2.72 0.55,4 0.45,1.28 1.2,2.47 2.25,3.33 1.07,0.89 2.42,1.42 3.81,1.49 1.39,0.06 2.79,-0.34 3.93,-1.13 0.91,-0.63 1.64,-1.5 2.16,-2.48 0.52,-0.97 0.84,-2.05 0.98,-3.15 0.25,-1.93 -0.03,-3.95 -0.93,-5.69 -0.89,-1.74 -2.41,-3.17 -4.24,-3.84 -0.8,-0.29 -1.65,-0.44 -2.49,-0.38 z" />
          </g>
        </g>
      </g>
      <g
         id="beak">
        <g
           id="mandible_lower">
          <path
             id="mandible_lower_base"
             d="m 101.57067,58.446154 c -2.009695,-0.04524 -4.039489,0.323731 -5.946675,0.987793 -3.382997,1.172999 -6.443468,3.263007 -8.763965,5.991504 -1.410998,0.951999 -2.685736,2.117365 -3.765234,3.434863 -0.612,0.756499 -1.1732,1.580537 -1.4792,2.498536 -0.244564,0.725262 -0.610973,2.819387 -0.602636,3.102831 0.11423,1.236223 1.090844,1.849327 2.056924,2.43877 4.40983,2.786311 5.944508,7.625082 9.690331,10.251465 1.563999,1.104998 3.433404,1.7253 5.337403,1.9208 2.235502,0.221 4.496572,-0.136133 6.655562,-0.773632 1.9975,-0.586499 3.92635,-1.410337 5.69434,-2.506836 3.3745,-2.073998 6.18834,-5.117732 9.90283,-6.48623 3.25389,-0.80071 4.31428,-1.703566 5.34737,-7.615138 0.17148,-0.645957 0.23883,-4.14994 -2.3209,-5.287597 -0.8415,-0.373999 -1.75213,-0.552633 -2.64463,-0.773633 -2.7455,-0.662999 -5.41437,-1.640634 -7.93887,-2.898632 -1.258,-0.6205 -2.48127,-1.307606 -3.71377,-1.970606 -1.275,-0.68 -2.56753,-1.334766 -3.94453,-1.759766 -1.16025,-0.350625 -2.35853,-0.527348 -3.56436,-0.554492 z"
             style="display:inline;fill:none;fill-opacity:1;stroke-width:5.95;stroke-dasharray:none;stroke-opacity:1" />
        </g>
      </g>
    </g>
  </g>
  <metadata
     id="metadata153">
    <rdf:RDF>
      <cc:Work
         rdf:about="">
        <dc:title>Tux</dc:title>
      </cc:Work>
    </rdf:RDF>
  </metadata>
</svg>
