<svg xmlns="http://www.w3.org/2000/svg" id="svg" height="40" viewBox="0 -960 960 960" width="40"><path d="M480-520q157.334 0 258.667-48.333Q840-616.667 840-680q0-64-101.333-112T480-840q-157.334 0-258.667 48Q120-744 120-680q0 63.333 101.333 111.667Q322.666-520 480-520Zm0 100q47 0 108.833-8.5 61.834-8.5 117.834-26.833 56-18.334 94.666-47.5Q840-532 840-573.333v100q0 41.333-38.667 70.5-38.666 29.166-94.666 47.5-56 18.333-117.834 26.833Q527-320 480-320q-46.333 0-108.5-8.5t-118.167-27.167q-56-18.666-94.666-47.833Q120-432.667 120-473.333v-100q0 40.666 38.667 69.833 38.666 29.167 94.666 47.833Q309.333-437 371.5-428.5T480-420Zm0 200q47 0 108.833-8.5 61.834-8.5 117.834-26.833 56-18.334 94.666-47.5Q840-332 840-373.333v100q0 41.333-38.667 70.5-38.666 29.166-94.666 47.5-56 18.333-117.834 26.833Q527-120 480-120q-46.333 0-108.5-8.5t-118.167-27.167q-56-18.666-94.666-47.833Q120-232.667 120-273.333v-100q0 40.666 38.667 69.833 38.666 29.167 94.666 47.833Q309.333-237 371.5-228.5T480-220Z"/></svg>
